<svg width="76" height="83" viewBox="0 0 76 83" fill="none" xmlns="http://www.w3.org/2000/svg">
<path d="M1.3516 34.6194L17.2438 17.2299C18.1267 16.2639 19.1672 15.5738 20.3655 15.1598C21.5637 14.7457 22.7934 14.6767 24.0547 14.9527L28.9737 16.0913C25.5683 20.5077 22.888 24.51 20.933 28.0983C18.978 31.6866 17.0861 36.034 15.2573 41.1404L1.3516 34.6194ZM20.7438 44.0387C22.1943 39.0702 24.1657 34.3779 26.658 29.9615C29.1503 25.5451 32.161 21.4048 35.6901 17.5405C41.2397 11.468 47.5777 6.93014 54.7039 3.92701C61.8302 0.923881 68.4835 0.0102451 74.6638 1.1861C75.7359 7.94866 74.916 15.2288 72.2043 23.0264C69.4925 30.8241 65.3618 37.7591 59.8121 43.8316C56.3436 47.627 52.5598 50.9227 48.4606 53.7188C44.3614 56.5149 40.0415 58.7051 35.5009 60.2895L20.7438 44.0387ZM46.8524 31.6176C48.3029 33.2048 50.0851 33.9983 52.199 33.9983C54.3129 33.9983 56.0939 33.2048 57.5418 31.6176C58.9923 30.0305 59.7175 28.0818 59.7175 25.7715C59.7175 23.4612 58.9923 21.5111 57.5418 19.9212C56.0914 18.334 54.3092 17.5405 52.1952 17.5405C50.0813 17.5405 48.3004 18.334 46.8524 19.9212C45.402 21.5083 44.6767 23.4584 44.6767 25.7715C44.6767 28.0845 45.402 30.0333 46.8524 31.6176ZM44.2037 81.4053L38.1496 66.1895C42.8163 64.1883 46.8058 62.1182 50.1179 59.979C53.43 57.8398 57.1029 54.9071 61.1365 51.1808L62.0825 56.5632C62.3347 57.9433 62.2717 59.3069 61.8933 60.6539C61.5149 62.0009 60.8842 63.156 60.0013 64.1193L44.2037 81.4053ZM7.40576 57.2878C9.61301 54.8726 12.2932 53.647 15.4465 53.6111C18.5997 53.5753 21.2799 54.7663 23.4871 57.1842C25.6944 59.5994 26.798 62.5322 26.798 65.9825C26.798 69.4328 25.6944 72.3655 23.4871 74.7807C21.9105 76.5059 19.2782 77.9895 15.5902 79.2316C11.9022 80.4737 6.80917 81.5778 0.311035 82.5439C1.19393 75.4363 2.20296 69.8813 3.33812 65.879C4.47327 61.8766 5.82916 59.0129 7.40576 57.2878Z" fill="white"/>
</svg>
