<svg width="43" height="43" viewBox="0 0 43 43" fill="none" xmlns="http://www.w3.org/2000/svg">
<path d="M19.4424 0.0924797C12.7236 0.789547 6.83632 4.44287 3.25858 10.137C-1.81407 18.1995 -0.865048 28.8571 5.54296 35.8782C9.0955 39.7667 13.5299 42.0931 18.8545 42.8489C19.8455 42.9917 23.1461 42.9833 24.1875 42.8489C29.0502 42.1771 33.4006 40.0187 36.7096 36.6425C37.8014 35.5339 38.0281 35.2735 38.7504 34.3161C40.9004 31.4522 42.3029 27.9585 42.8488 24.1456C42.9916 23.1546 42.9916 19.8456 42.8488 18.8546C42.4877 16.3099 41.8242 14.1431 40.7744 12.0183C39.649 9.76748 38.5068 8.16338 36.718 6.35771C33.4006 2.99834 29.2518 0.907127 24.4814 0.201656C23.4484 0.0504875 20.467 -0.0167007 19.4424 0.0924797ZM26.0771 9.6331C26.2619 11.0692 26.7154 12.1694 27.5049 13.1269C28.5295 14.3698 30.058 15.1677 31.7209 15.3356L32.25 15.3944V17.3765V19.3585L31.4605 19.3081C31.0238 19.2745 30.4527 19.1989 30.1924 19.1485C29.0502 18.9134 27.5889 18.2919 26.6062 17.6284C26.3459 17.4437 26.1107 17.3009 26.0855 17.3009C26.0687 17.3009 26.0519 19.5181 26.0603 22.2308C26.0771 27.1187 26.0771 27.1774 25.884 27.9249C25.1869 30.6628 23.0873 32.796 20.3662 33.5183C19.3584 33.7786 17.8971 33.8206 16.8809 33.6106C13.849 32.9892 11.4975 30.6712 10.876 27.7065C10.708 26.9339 10.7164 25.439 10.8844 24.6243C11.0271 23.9104 11.4219 22.9194 11.8586 22.1972C12.2281 21.5841 13.2527 20.4839 13.891 20.0304C15.3523 18.9974 17.3428 18.4347 18.9805 18.6026L19.5684 18.6614V20.7022V22.7431L19.2576 22.6591C19.0812 22.6087 18.6025 22.5919 18.1826 22.6087C17.2252 22.6507 16.5029 22.9698 15.8478 23.6417C13.7566 25.7665 14.9408 29.2938 17.9055 29.7558C19.8371 30.0581 21.7184 28.6388 22.0039 26.6651C22.0543 26.3124 22.0879 22.7599 22.0879 17.6536V9.23838H24.0531H26.0268L26.0771 9.6331Z" fill="#291000"/>
</svg>
