<svg width="73" height="80" viewBox="0 0 73 80" fill="none" xmlns="http://www.w3.org/2000/svg">
<path d="M70.9038 24.6892L61.8056 33.1769L64.5303 45.8129C64.7222 46.6986 64.6713 47.6266 64.3839 48.4808C64.0965 49.335 63.5853 50.0776 62.9142 50.6156C62.2356 51.1609 61.4251 51.4752 60.5841 51.5192C59.7431 51.5633 58.9089 51.3351 58.1857 50.8631L47.8432 44.1437L37.5007 50.8631C36.7776 51.3351 35.9433 51.5633 35.1023 51.5192C34.2613 51.4752 33.4508 51.1609 32.7722 50.6156C32.1015 50.0773 31.5905 49.3347 31.3031 48.4806C31.0157 47.6265 30.9646 46.6986 31.1562 45.8129L33.8808 33.1769L24.7794 24.6892C24.1425 24.0943 23.6806 23.3065 23.452 22.4251C23.2234 21.5436 23.2383 20.6079 23.4946 19.7356C23.751 18.8634 24.2375 18.0936 24.8929 17.5232C25.5482 16.9529 26.3431 16.6074 27.1775 16.5304L39.2104 15.4163L43.9034 3.44514C44.2346 2.60589 44.7831 1.8911 45.4812 1.38892C46.1793 0.886735 46.9965 0.619141 47.8319 0.619141C48.6674 0.619141 49.4845 0.886735 50.1826 1.38892C50.8807 1.8911 51.4292 2.60589 51.7605 3.44514L56.4534 15.4234L68.483 16.5304C69.3194 16.6022 70.1175 16.9438 70.7763 17.5121C71.4352 18.0803 71.9252 18.8497 72.1843 19.7227C72.4435 20.5958 72.4601 21.5333 72.2322 22.4167C72.0043 23.3002 71.542 24.0898 70.9038 24.6856V24.6892ZM22.5105 35.3943C22.2703 35.1312 21.9852 34.9225 21.6713 34.7802C21.3574 34.6378 21.0209 34.5645 20.6811 34.5645C20.3413 34.5645 20.0049 34.6378 19.691 34.7802C19.3771 34.9225 19.0919 35.1312 18.8518 35.3943L0.752365 55.1989C0.267195 55.7298 -0.00537109 56.4498 -0.00537109 57.2006C-0.00537109 57.9514 0.267195 58.6714 0.752365 59.2023C1.23753 59.7332 1.89557 60.0314 2.5817 60.0314C3.26783 60.0314 3.92587 59.7332 4.41104 59.2023L22.5105 39.3976C22.7509 39.1349 22.9416 38.8229 23.0717 38.4794C23.2018 38.1359 23.2688 37.7678 23.2688 37.396C23.2688 37.0242 23.2018 36.656 23.0717 36.3125C22.9416 35.9691 22.7509 35.657 22.5105 35.3943ZM27.6817 55.1989C27.4416 54.9359 27.1564 54.7272 26.8425 54.5848C26.5287 54.4424 26.1922 54.3691 25.8524 54.3691C25.5126 54.3691 25.1761 54.4424 24.8623 54.5848C24.5484 54.7272 24.2632 54.9359 24.0231 55.1989L5.92363 75.0036C5.6834 75.2664 5.49284 75.5785 5.36282 75.9219C5.23281 76.2654 5.1659 76.6335 5.1659 77.0052C5.1659 77.377 5.23281 77.7451 5.36282 78.0886C5.49284 78.432 5.6834 78.7441 5.92363 79.0069C6.4088 79.5378 7.06683 79.8361 7.75297 79.8361C8.09271 79.8361 8.42912 79.7628 8.743 79.6206C9.05688 79.4783 9.34207 79.2698 9.5823 79.0069L27.6817 59.2023C27.9221 58.9395 28.1129 58.6275 28.243 58.284C28.3731 57.9406 28.4401 57.5724 28.4401 57.2006C28.4401 56.8288 28.3731 56.4606 28.243 56.1172C28.1129 55.7737 27.9221 55.4617 27.6817 55.1989ZM47.297 55.1989L29.1976 75.0036C28.7124 75.5344 28.4398 76.2545 28.4398 77.0052C28.4398 77.756 28.7124 78.4761 29.1976 79.0069C29.6827 79.5378 30.3408 79.8361 31.0269 79.8361C31.713 79.8361 32.3711 79.5378 32.8562 79.0069L50.9557 59.2023C51.4408 58.6719 51.7136 57.9523 51.7139 57.2019C51.7142 56.4514 51.442 55.7316 50.9573 55.2007C50.4725 54.6698 49.8149 54.3714 49.1291 54.371C48.4433 54.3707 47.7854 54.6685 47.3002 55.1989H47.297Z" fill="white"/>
</svg>
